# xmcd
#
# Track frame offsets: 
#        182
#        10995
#        29285
#        45492
#        55972
#        89090
#        104975
#        123177
#        141057
#        158750
#
# Disc length: 2463 seconds
#
# Revision: 1
# Processed by: cddbd v1.5.2PL0 Copyright (c) Steve Scherf et al.
# Submitted via: ExactAudioCopyFreeDBPlugin 1.0
#
DISCID=85099d0a
DTITLE=Various Artist - RCD Classic Rock Vol. 3
DYEAR=1900
DGENRE=Pop
TTITLE0=Chuck Berry - Promised Land
TTITLE1=Family - Burlesque
TTITLE2=Rod Stewart - Little Miss Understood
TTITLE3=The Beach Boys - Surfer Girl
TTITLE4=Gary Moore - Parisienne Walkways (Live)
TTITLE5=Tom Jones - The Art of Noise - Kiss
TTITLE6=The Stranglers - Wet Afternoon
TTITLE7=Happy Mondays - Kinky Afro
TTITLE8=The Sugarbabes - Hit
TTITLE9=The Icicle Works - When It All Comes Down
EXTD=
EXTT0=
EXTT1=
EXTT2=
EXTT3=
EXTT4=
EXTT5=
EXTT6=
EXTT7=
EXTT8=
EXTT9=
PLAYORDER=
